<mxfile host="app.diagrams.net" modified="2022-03-23T12:31:21.697Z" agent="5.0 (Macintosh; Intel Mac OS X 10_15_7) AppleWebKit/605.1.15 (KHTML, like Gecko) Version/15.4 Safari/605.1.15" etag="nN_U3qUALm36S68mx96L" version="17.1.3" type="github">
  <diagram id="GkwxvoKI0v0egCr2lqlU" name="Page-1">
    <mxGraphModel dx="946" dy="645" grid="1" gridSize="10" guides="1" tooltips="1" connect="1" arrows="1" fold="1" page="1" pageScale="1" pageWidth="850" pageHeight="1100" math="0" shadow="0">
      <root>
        <mxCell id="0" />
        <mxCell id="1" parent="0" />
        <mxCell id="Pq7oBgW0rJb-S-d0AddA-2" style="rounded=0;orthogonalLoop=1;jettySize=auto;html=1;exitX=1;exitY=0.5;exitDx=0;exitDy=0;entryX=0;entryY=0.5;entryDx=0;entryDy=0;endArrow=none;endFill=0;fontColor=#000000;strokeColor=#000000;fillColor=#e51400;" parent="1" source="Pq7oBgW0rJb-S-d0AddA-4" target="Pq7oBgW0rJb-S-d0AddA-7" edge="1">
          <mxGeometry relative="1" as="geometry" />
        </mxCell>
        <mxCell id="Pq7oBgW0rJb-S-d0AddA-3" style="edgeStyle=none;rounded=0;orthogonalLoop=1;jettySize=auto;html=1;exitX=1;exitY=0.5;exitDx=0;exitDy=0;entryX=0;entryY=0.5;entryDx=0;entryDy=0;endArrow=none;endFill=0;fontColor=#000000;strokeColor=#000000;fillColor=#e51400;" parent="1" source="uQF2bjW9X4T5isOUZy0i-4" target="Pq7oBgW0rJb-S-d0AddA-10" edge="1">
          <mxGeometry relative="1" as="geometry" />
        </mxCell>
        <mxCell id="Pq7oBgW0rJb-S-d0AddA-4" value="" style="ellipse;whiteSpace=wrap;html=1;aspect=fixed;fillColor=none;" parent="1" vertex="1">
          <mxGeometry x="760" y="143" width="30" height="30" as="geometry" />
        </mxCell>
        <mxCell id="Pq7oBgW0rJb-S-d0AddA-5" style="edgeStyle=none;rounded=0;orthogonalLoop=1;jettySize=auto;html=1;exitX=1;exitY=0.5;exitDx=0;exitDy=0;entryX=0;entryY=0.5;entryDx=0;entryDy=0;endArrow=none;endFill=0;" parent="1" source="Pq7oBgW0rJb-S-d0AddA-7" target="Pq7oBgW0rJb-S-d0AddA-12" edge="1">
          <mxGeometry relative="1" as="geometry" />
        </mxCell>
        <mxCell id="Pq7oBgW0rJb-S-d0AddA-6" style="edgeStyle=none;rounded=0;orthogonalLoop=1;jettySize=auto;html=1;exitX=1;exitY=0.5;exitDx=0;exitDy=0;entryX=0;entryY=0.5;entryDx=0;entryDy=0;endArrow=none;endFill=0;strokeColor=#000000;fillColor=#e51400;" parent="1" source="Pq7oBgW0rJb-S-d0AddA-7" target="Pq7oBgW0rJb-S-d0AddA-15" edge="1">
          <mxGeometry relative="1" as="geometry" />
        </mxCell>
        <mxCell id="Pq7oBgW0rJb-S-d0AddA-7" value="" style="ellipse;whiteSpace=wrap;html=1;aspect=fixed;fillColor=none;fontColor=#000000;" parent="1" vertex="1">
          <mxGeometry x="845" y="143" width="30" height="30" as="geometry" />
        </mxCell>
        <mxCell id="Pq7oBgW0rJb-S-d0AddA-8" style="edgeStyle=none;rounded=0;orthogonalLoop=1;jettySize=auto;html=1;exitX=1;exitY=0.5;exitDx=0;exitDy=0;endArrow=none;endFill=0;entryX=0;entryY=0.5;entryDx=0;entryDy=0;strokeColor=#000000;fillColor=#e51400;" parent="1" source="Pq7oBgW0rJb-S-d0AddA-10" target="Pq7oBgW0rJb-S-d0AddA-15" edge="1">
          <mxGeometry relative="1" as="geometry">
            <mxPoint x="1045" y="223" as="targetPoint" />
          </mxGeometry>
        </mxCell>
        <mxCell id="Pq7oBgW0rJb-S-d0AddA-9" style="edgeStyle=none;rounded=0;orthogonalLoop=1;jettySize=auto;html=1;exitX=1;exitY=0.5;exitDx=0;exitDy=0;entryX=0;entryY=0.5;entryDx=0;entryDy=0;endArrow=none;endFill=0;" parent="1" source="Pq7oBgW0rJb-S-d0AddA-10" target="Pq7oBgW0rJb-S-d0AddA-17" edge="1">
          <mxGeometry relative="1" as="geometry" />
        </mxCell>
        <mxCell id="Pq7oBgW0rJb-S-d0AddA-10" value="" style="ellipse;whiteSpace=wrap;html=1;aspect=fixed;fillColor=none;fontColor=#000000;" parent="1" vertex="1">
          <mxGeometry x="845" y="223" width="30" height="30" as="geometry" />
        </mxCell>
        <mxCell id="Pq7oBgW0rJb-S-d0AddA-11" style="edgeStyle=none;rounded=0;orthogonalLoop=1;jettySize=auto;html=1;exitX=1;exitY=0.5;exitDx=0;exitDy=0;entryX=0;entryY=0.5;entryDx=0;entryDy=0;fontSize=18;endArrow=none;endFill=0;" parent="1" source="Pq7oBgW0rJb-S-d0AddA-12" target="Pq7oBgW0rJb-S-d0AddA-28" edge="1">
          <mxGeometry relative="1" as="geometry" />
        </mxCell>
        <mxCell id="Pq7oBgW0rJb-S-d0AddA-12" value="" style="ellipse;whiteSpace=wrap;html=1;aspect=fixed;" parent="1" vertex="1">
          <mxGeometry x="975" y="103" width="30" height="30" as="geometry" />
        </mxCell>
        <mxCell id="Pq7oBgW0rJb-S-d0AddA-13" style="edgeStyle=none;rounded=0;orthogonalLoop=1;jettySize=auto;html=1;exitX=1;exitY=0.5;exitDx=0;exitDy=0;entryX=0;entryY=0.5;entryDx=0;entryDy=0;fontSize=18;endArrow=none;endFill=0;" parent="1" source="Pq7oBgW0rJb-S-d0AddA-15" target="Pq7oBgW0rJb-S-d0AddA-28" edge="1">
          <mxGeometry relative="1" as="geometry" />
        </mxCell>
        <mxCell id="Pq7oBgW0rJb-S-d0AddA-15" value="" style="ellipse;whiteSpace=wrap;html=1;aspect=fixed;fillColor=none;" parent="1" vertex="1">
          <mxGeometry x="975" y="183" width="30" height="30" as="geometry" />
        </mxCell>
        <mxCell id="Pq7oBgW0rJb-S-d0AddA-16" style="edgeStyle=none;rounded=0;orthogonalLoop=1;jettySize=auto;html=1;exitX=1;exitY=0.5;exitDx=0;exitDy=0;entryX=0;entryY=0.5;entryDx=0;entryDy=0;fontSize=18;endArrow=none;endFill=0;" parent="1" source="Pq7oBgW0rJb-S-d0AddA-17" target="Pq7oBgW0rJb-S-d0AddA-28" edge="1">
          <mxGeometry relative="1" as="geometry">
            <mxPoint x="1095" y="238" as="targetPoint" />
          </mxGeometry>
        </mxCell>
        <mxCell id="Pq7oBgW0rJb-S-d0AddA-17" value="" style="ellipse;whiteSpace=wrap;html=1;aspect=fixed;" parent="1" vertex="1">
          <mxGeometry x="975" y="263" width="30" height="30" as="geometry" />
        </mxCell>
        <mxCell id="Pq7oBgW0rJb-S-d0AddA-24" style="edgeStyle=none;rounded=0;orthogonalLoop=1;jettySize=auto;html=1;exitX=1;exitY=0.5;exitDx=0;exitDy=0;entryX=0;entryY=0.5;entryDx=0;entryDy=0;fontSize=18;endArrow=none;endFill=0;" parent="1" source="Pq7oBgW0rJb-S-d0AddA-25" target="Pq7oBgW0rJb-S-d0AddA-4" edge="1">
          <mxGeometry relative="1" as="geometry" />
        </mxCell>
        <mxCell id="uQF2bjW9X4T5isOUZy0i-5" style="rounded=0;orthogonalLoop=1;jettySize=auto;html=1;exitX=1;exitY=0.5;exitDx=0;exitDy=0;entryX=0;entryY=0.5;entryDx=0;entryDy=0;fontFamily=Georgia;fontSize=27;endArrow=none;endFill=0;" parent="1" source="W6WGtc0itYHZjcN9KtVL-1" target="uQF2bjW9X4T5isOUZy0i-4" edge="1">
          <mxGeometry relative="1" as="geometry" />
        </mxCell>
        <mxCell id="Pq7oBgW0rJb-S-d0AddA-25" value="" style="ellipse;whiteSpace=wrap;html=1;aspect=fixed;" parent="1" vertex="1">
          <mxGeometry x="630" y="143" width="30" height="30" as="geometry" />
        </mxCell>
        <mxCell id="Pq7oBgW0rJb-S-d0AddA-27" style="edgeStyle=none;rounded=0;orthogonalLoop=1;jettySize=auto;html=1;exitX=1;exitY=0.5;exitDx=0;exitDy=0;entryX=0;entryY=0.5;entryDx=0;entryDy=0;fontSize=18;endArrow=none;endFill=0;" parent="1" source="Pq7oBgW0rJb-S-d0AddA-28" target="Pq7oBgW0rJb-S-d0AddA-35" edge="1">
          <mxGeometry relative="1" as="geometry" />
        </mxCell>
        <mxCell id="Pq7oBgW0rJb-S-d0AddA-28" value="" style="ellipse;whiteSpace=wrap;html=1;aspect=fixed;" parent="1" vertex="1">
          <mxGeometry x="1105" y="183" width="30" height="30" as="geometry" />
        </mxCell>
        <mxCell id="Pq7oBgW0rJb-S-d0AddA-35" value="" style="ellipse;whiteSpace=wrap;html=1;aspect=fixed;" parent="1" vertex="1">
          <mxGeometry x="1205" y="183" width="30" height="30" as="geometry" />
        </mxCell>
        <mxCell id="uQF2bjW9X4T5isOUZy0i-3" value="&lt;font style=&quot;font-size: 27px&quot; face=&quot;Georgia&quot;&gt;&amp;lt;s&amp;gt;&lt;/font&gt;" style="text;html=1;align=center;verticalAlign=middle;resizable=0;points=[];autosize=1;strokeColor=none;fillColor=none;" parent="1" vertex="1">
          <mxGeometry x="470" y="188" width="60" height="20" as="geometry" />
        </mxCell>
        <mxCell id="uQF2bjW9X4T5isOUZy0i-4" value="" style="ellipse;whiteSpace=wrap;html=1;aspect=fixed;fillColor=none;" parent="1" vertex="1">
          <mxGeometry x="760" y="223" width="30" height="30" as="geometry" />
        </mxCell>
        <mxCell id="uQF2bjW9X4T5isOUZy0i-6" value="&lt;font style=&quot;font-size: 27px&quot; face=&quot;Georgia&quot;&gt;where&lt;/font&gt;" style="text;html=1;align=center;verticalAlign=middle;resizable=0;points=[];autosize=1;strokeColor=none;fillColor=none;" parent="1" vertex="1">
          <mxGeometry x="670" y="133" width="90" height="20" as="geometry" />
        </mxCell>
        <mxCell id="uQF2bjW9X4T5isOUZy0i-7" value="&lt;font style=&quot;font-size: 27px&quot; face=&quot;Georgia&quot;&gt;where&lt;/font&gt;" style="text;html=1;align=center;verticalAlign=middle;resizable=0;points=[];autosize=1;strokeColor=none;fillColor=none;" parent="1" vertex="1">
          <mxGeometry x="670" y="243" width="90" height="20" as="geometry" />
        </mxCell>
        <mxCell id="uQF2bjW9X4T5isOUZy0i-8" value="&lt;font style=&quot;font-size: 27px&quot; face=&quot;Georgia&quot;&gt;is&lt;/font&gt;" style="text;html=1;align=center;verticalAlign=middle;resizable=0;points=[];autosize=1;strokeColor=none;fillColor=none;fontColor=#000000;" parent="1" vertex="1">
          <mxGeometry x="800" y="133" width="40" height="20" as="geometry" />
        </mxCell>
        <mxCell id="uQF2bjW9X4T5isOUZy0i-9" value="&lt;font style=&quot;font-size: 27px&quot; face=&quot;Georgia&quot;&gt;is&lt;/font&gt;" style="text;html=1;align=center;verticalAlign=middle;resizable=0;points=[];autosize=1;strokeColor=none;fillColor=none;fontColor=#000000;" parent="1" vertex="1">
          <mxGeometry x="800" y="243" width="40" height="20" as="geometry" />
        </mxCell>
        <mxCell id="uQF2bjW9X4T5isOUZy0i-10" value="&lt;font style=&quot;font-size: 27px&quot; face=&quot;Georgia&quot;&gt;the&lt;/font&gt;" style="text;html=1;align=center;verticalAlign=middle;resizable=0;points=[];autosize=1;strokeColor=none;fillColor=none;fontColor=#000000;" parent="1" vertex="1">
          <mxGeometry x="905" y="223" width="50" height="20" as="geometry" />
        </mxCell>
        <mxCell id="uQF2bjW9X4T5isOUZy0i-11" value="&lt;font style=&quot;font-size: 27px&quot; face=&quot;Georgia&quot;&gt;the&lt;/font&gt;" style="text;html=1;align=center;verticalAlign=middle;resizable=0;points=[];autosize=1;strokeColor=none;fillColor=none;fontColor=#000000;" parent="1" vertex="1">
          <mxGeometry x="905" y="153" width="50" height="20" as="geometry" />
        </mxCell>
        <mxCell id="uQF2bjW9X4T5isOUZy0i-12" value="&lt;font style=&quot;font-size: 27px&quot; face=&quot;Georgia&quot;&gt;these&lt;/font&gt;" style="text;html=1;align=center;verticalAlign=middle;resizable=0;points=[];autosize=1;strokeColor=none;fillColor=none;" parent="1" vertex="1">
          <mxGeometry x="884" y="103" width="80" height="20" as="geometry" />
        </mxCell>
        <mxCell id="uQF2bjW9X4T5isOUZy0i-13" value="&lt;font style=&quot;font-size: 27px&quot; face=&quot;Georgia&quot;&gt;there&lt;/font&gt;" style="text;html=1;align=center;verticalAlign=middle;resizable=0;points=[];autosize=1;strokeColor=none;fillColor=none;fontColor=#000000;" parent="1" vertex="1">
          <mxGeometry x="884" y="268" width="80" height="20" as="geometry" />
        </mxCell>
        <mxCell id="uQF2bjW9X4T5isOUZy0i-14" value="&lt;font style=&quot;font-size: 27px&quot; face=&quot;Georgia&quot;&gt;book&lt;/font&gt;" style="text;html=1;align=center;verticalAlign=middle;resizable=0;points=[];autosize=1;strokeColor=none;fillColor=none;" parent="1" vertex="1">
          <mxGeometry x="1040" y="123" width="70" height="20" as="geometry" />
        </mxCell>
        <mxCell id="uQF2bjW9X4T5isOUZy0i-15" value="&lt;font style=&quot;font-size: 27px&quot; face=&quot;Georgia&quot;&gt;book&lt;/font&gt;" style="text;html=1;align=center;verticalAlign=middle;resizable=0;points=[];autosize=1;strokeColor=none;fillColor=none;" parent="1" vertex="1">
          <mxGeometry x="1005" y="173" width="70" height="20" as="geometry" />
        </mxCell>
        <mxCell id="uQF2bjW9X4T5isOUZy0i-18" value="&lt;font style=&quot;font-size: 27px&quot; face=&quot;Georgia&quot;&gt;&amp;lt;/s&amp;gt;&lt;/font&gt;" style="text;html=1;align=center;verticalAlign=middle;resizable=0;points=[];autosize=1;strokeColor=none;fillColor=none;" parent="1" vertex="1">
          <mxGeometry x="1135" y="168" width="70" height="20" as="geometry" />
        </mxCell>
        <mxCell id="uQF2bjW9X4T5isOUZy0i-108" value="&lt;font style=&quot;font-size: 27px&quot; face=&quot;Georgia&quot;&gt;book&lt;br&gt;&lt;/font&gt;" style="text;html=1;align=center;verticalAlign=middle;resizable=0;points=[];autosize=1;strokeColor=none;fillColor=none;" parent="1" vertex="1">
          <mxGeometry x="1040" y="253" width="70" height="20" as="geometry" />
        </mxCell>
        <mxCell id="W6WGtc0itYHZjcN9KtVL-1" value="" style="ellipse;whiteSpace=wrap;html=1;aspect=fixed;" parent="1" vertex="1">
          <mxGeometry x="630" y="223" width="30" height="30" as="geometry" />
        </mxCell>
        <mxCell id="W6WGtc0itYHZjcN9KtVL-3" style="rounded=0;orthogonalLoop=1;jettySize=auto;html=1;exitX=1;exitY=0.5;exitDx=0;exitDy=0;entryX=0;entryY=0.5;entryDx=0;entryDy=0;endArrow=none;endFill=0;" parent="1" source="W6WGtc0itYHZjcN9KtVL-2" target="Pq7oBgW0rJb-S-d0AddA-25" edge="1">
          <mxGeometry relative="1" as="geometry" />
        </mxCell>
        <mxCell id="W6WGtc0itYHZjcN9KtVL-4" style="rounded=0;orthogonalLoop=1;jettySize=auto;html=1;exitX=1;exitY=0.5;exitDx=0;exitDy=0;entryX=0;entryY=0.5;entryDx=0;entryDy=0;endArrow=none;endFill=0;" parent="1" source="W6WGtc0itYHZjcN9KtVL-2" target="W6WGtc0itYHZjcN9KtVL-1" edge="1">
          <mxGeometry relative="1" as="geometry" />
        </mxCell>
        <mxCell id="W6WGtc0itYHZjcN9KtVL-2" value="" style="ellipse;whiteSpace=wrap;html=1;aspect=fixed;" parent="1" vertex="1">
          <mxGeometry x="530" y="183" width="30" height="30" as="geometry" />
        </mxCell>
        <mxCell id="W6WGtc0itYHZjcN9KtVL-5" value="&lt;font style=&quot;font-size: 27px&quot; face=&quot;Georgia&quot;&gt;and&lt;/font&gt;" style="text;html=1;align=center;verticalAlign=middle;resizable=0;points=[];autosize=1;strokeColor=none;fillColor=none;" parent="1" vertex="1">
          <mxGeometry x="560" y="148" width="60" height="20" as="geometry" />
        </mxCell>
        <mxCell id="W6WGtc0itYHZjcN9KtVL-6" value="&lt;font style=&quot;font-size: 27px&quot; face=&quot;Georgia&quot;&gt;add&lt;/font&gt;" style="text;html=1;align=center;verticalAlign=middle;resizable=0;points=[];autosize=1;strokeColor=none;fillColor=none;" parent="1" vertex="1">
          <mxGeometry x="560" y="228" width="60" height="20" as="geometry" />
        </mxCell>
      </root>
    </mxGraphModel>
  </diagram>
</mxfile>
